REM DIRINDEX 1\8,1\2\11,1\3\12,1\3\14,1\5\15,1\5\16,1\6\17,1\6\18,1\4\19,1\4\20,1\4\21,1\4\22,1\7\23,1\7\24,1\7\25,1\2\9\26,1\2\9\27,1\2\10\28,1\2\10\29,1\2\10\30,1\2\10\31,1\2\10\32,1\3\13\33,1\3\13\34,1\3\13\35
REM DIRNAME folder01,folder02,folder03,folder04,folder05,folder06,folder07,folder08,folder09,folder10,folder11,folder12,folder13,folder14,folder15,folder16,folder17,folder18,folder19,folder20,folder21,folder22,folder23,folder24,folder25,folder26,folder27,folder28,folder29,folder30,folder31,folder32,folder33,folder34,folder35
TITLE ""
FILE "121 121_UNIT7_SET5.mp3" MP3
  TRACK 01 AUDIO
    TITLE "14:cjc123_2544"
    INDEX 01 00:00:00
  TRACK 02 AUDIO
    TITLE "0:"
    INDEX 01 00:02:38
  TRACK 03 AUDIO
    TITLE "33:cjc123_2545"
    INDEX 01 00:03:19
  TRACK 04 AUDIO
    TITLE "0:"
    INDEX 01 00:04:17
  TRACK 05 AUDIO
    TITLE "34:cjc123_2546"
    INDEX 01 00:04:42
  TRACK 06 AUDIO
    TITLE "0:"
    INDEX 01 00:05:48
  TRACK 07 AUDIO
    TITLE "35:cjc123_2547"
    INDEX 01 00:06:20
  TRACK 08 AUDIO
    TITLE "0:"
    INDEX 01 00:10:37
  TRACK 09 AUDIO
    TITLE "33:cjc123_2548"
    INDEX 01 00:11:13
  TRACK 10 AUDIO
    TITLE "0:"
    INDEX 01 00:12:26
  TRACK 11 AUDIO
    TITLE "34:cjc123_2549"
    INDEX 01 00:12:56
  TRACK 12 AUDIO
    TITLE "0:"
    INDEX 01 00:13:73
  TRACK 13 AUDIO
    TITLE "35:cjc123_2550"
    INDEX 01 00:14:47
  TRACK 14 AUDIO
    TITLE "0:"
    INDEX 01 00:20:47
  TRACK 15 AUDIO
    TITLE "33:cjc123_2551"
    INDEX 01 00:21:25
  TRACK 16 AUDIO
    TITLE "0:"
    INDEX 01 00:22:46
  TRACK 17 AUDIO
    TITLE "34:cjc123_2552"
    INDEX 01 00:22:66
  TRACK 18 AUDIO
    TITLE "0:"
    INDEX 01 00:24:16
  TRACK 19 AUDIO
    TITLE "35:cjc123_2553"
    INDEX 01 00:24:61
  TRACK 20 AUDIO
    TITLE "0:"
    INDEX 01 00:29:42
  TRACK 21 AUDIO
    TITLE "33:cjc123_2554"
    INDEX 01 00:30:16
  TRACK 22 AUDIO
    TITLE "0:"
    INDEX 01 00:31:18
  TRACK 23 AUDIO
    TITLE "34:cjc123_2555"
    INDEX 01 00:31:41
  TRACK 24 AUDIO
    TITLE "0:"
    INDEX 01 00:32:50
  TRACK 25 AUDIO
    TITLE "35:cjc123_2556"
    INDEX 01 00:33:24
  TRACK 26 AUDIO
    TITLE "0:"
    INDEX 01 00:37:65
  TRACK 27 AUDIO
    TITLE "33:cjc123_2557"
    INDEX 01 00:38:41
  TRACK 28 AUDIO
    TITLE "0:"
    INDEX 01 00:39:43
  TRACK 29 AUDIO
    TITLE "34:cjc123_2558"
    INDEX 01 00:39:68
  TRACK 30 AUDIO
    TITLE "0:"
    INDEX 01 00:40:68
  TRACK 31 AUDIO
    TITLE "35:cjc123_2559"
    INDEX 01 00:41:44
  TRACK 32 AUDIO
    TITLE "0:"
    INDEX 01 00:47:40
  TRACK 33 AUDIO
    TITLE "33:cjc123_2560"
    INDEX 01 00:48:28
  TRACK 34 AUDIO
    TITLE "0:"
    INDEX 01 00:49:37
  TRACK 35 AUDIO
    TITLE "34:cjc123_2561"
    INDEX 01 00:49:65
  TRACK 36 AUDIO
    TITLE "0:"
    INDEX 01 00:51:05
  TRACK 37 AUDIO
    TITLE "35:cjc123_2562"
    INDEX 01 00:51:58
  TRACK 38 AUDIO
    TITLE "0:"
    INDEX 01 00:57:03
  TRACK 39 AUDIO
    TITLE "33:cjc123_2563"
    INDEX 01 00:57:54
  TRACK 40 AUDIO
    TITLE "0:"
    INDEX 01 00:58:69
  TRACK 41 AUDIO
    TITLE "34:cjc123_2564"
    INDEX 01 00:59:22
  TRACK 42 AUDIO
    TITLE "0:"
    INDEX 01 01:00:39
  TRACK 43 AUDIO
    TITLE "35:cjc123_2565"
    INDEX 01 01:01:15
  TRACK 44 AUDIO
    TITLE "0:"
    INDEX 01 01:04:70
  TRACK 45 AUDIO
    TITLE "33:cjc123_2566"
    INDEX 01 01:05:54
  TRACK 46 AUDIO
    TITLE "0:"
    INDEX 01 01:06:55
  TRACK 47 AUDIO
    TITLE "34:cjc123_2567"
    INDEX 01 01:07:04
  TRACK 48 AUDIO
    TITLE "0:"
    INDEX 01 01:08:11
  TRACK 49 AUDIO
    TITLE "35:cjc123_2568"
    INDEX 01 01:08:56
  TRACK 50 AUDIO
    TITLE "0:"
    INDEX 01 01:12:09
  TRACK 51 AUDIO
    TITLE "33:cjc123_2569"
    INDEX 01 01:12:62
  TRACK 52 AUDIO
    TITLE "0:"
    INDEX 01 01:13:73
  TRACK 53 AUDIO
    TITLE "34:cjc123_2570"
    INDEX 01 01:14:21
  TRACK 54 AUDIO
    TITLE "0:"
    INDEX 01 01:15:25
  TRACK 55 AUDIO
    TITLE "35:cjc123_2571"
    INDEX 01 01:15:70
  TRACK 56 AUDIO
    TITLE "0:"
    INDEX 01 01:21:47
  TRACK 57 AUDIO
    TITLE "33:cjc123_2572"
    INDEX 01 01:22:23
  TRACK 58 AUDIO
    TITLE "0:"
    INDEX 01 01:23:07
  TRACK 59 AUDIO
    TITLE "34:cjc123_2573"
    INDEX 01 01:23:36
  TRACK 60 AUDIO
    TITLE "0:"
    INDEX 01 01:24:22
  TRACK 61 AUDIO
    TITLE "35:cjc123_2574"
    INDEX 01 01:24:71
  TRACK 62 AUDIO
    TITLE "0:"
    INDEX 01 01:31:32
  TRACK 63 AUDIO
    TITLE "33:cjc123_2575"
    INDEX 01 01:32:31
  TRACK 64 AUDIO
    TITLE "0:"
    INDEX 01 01:33:46
  TRACK 65 AUDIO
    TITLE "34:cjc123_2576"
    INDEX 01 01:33:74
  TRACK 66 AUDIO
    TITLE "0:"
    INDEX 01 01:35:00
  TRACK 67 AUDIO
    TITLE "35:cjc123_2577"
    INDEX 01 01:35:49
  TRACK 68 AUDIO
    TITLE "0:"
    INDEX 01 01:42:06
  TRACK 69 AUDIO
    TITLE "33:cjc123_2578"
    INDEX 01 01:42:71
  TRACK 70 AUDIO
    TITLE "0:"
    INDEX 01 01:44:05
  TRACK 71 AUDIO
    TITLE "34:cjc123_2579"
    INDEX 01 01:44:30
  TRACK 72 AUDIO
    TITLE "0:"
    INDEX 01 01:45:55
  TRACK 73 AUDIO
    TITLE "35:cjc123_2580"
    INDEX 01 01:46:29
  TRACK 74 AUDIO
    TITLE "0:"
    INDEX 01 01:50:47
  TRACK 75 AUDIO
    TITLE "33:cjc123_2581"
    INDEX 01 01:51:21
  TRACK 76 AUDIO
    TITLE "0:"
    INDEX 01 01:52:40
  TRACK 77 AUDIO
    TITLE "34:cjc123_2582"
    INDEX 01 01:52:65
  TRACK 78 AUDIO
    TITLE "0:"
    INDEX 01 01:53:70
  TRACK 79 AUDIO
    TITLE "35:cjc123_2583"
    INDEX 01 01:54:46
  TRACK 80 AUDIO
    TITLE "0:"
    INDEX 01 02:01:54
  TRACK 81 AUDIO
    TITLE "33:cjc123_2584"
    INDEX 01 02:02:28
  TRACK 82 AUDIO
    TITLE "0:"
    INDEX 01 02:03:49
  TRACK 83 AUDIO
    TITLE "34:cjc123_2585"
    INDEX 01 02:04:00
  TRACK 84 AUDIO
    TITLE "0:"
    INDEX 01 02:05:19
  TRACK 85 AUDIO
    TITLE "35:cjc123_2586"
    INDEX 01 02:05:68
  TRACK 86 AUDIO
    TITLE "0:"
    INDEX 01 02:10:34
  TRACK 87 AUDIO
    TITLE "33:cjc123_2587"
    INDEX 01 02:11:08
  TRACK 88 AUDIO
    TITLE "0:"
    INDEX 01 02:12:11
  TRACK 89 AUDIO
    TITLE "34:cjc123_2588"
    INDEX 01 02:12:35
  TRACK 90 AUDIO
    TITLE "0:"
    INDEX 01 02:13:46
  TRACK 91 AUDIO
    TITLE "35:cjc123_2589"
    INDEX 01 02:14:18
  TRACK 92 AUDIO
    TITLE "0:"
    INDEX 01 02:19:46
